<?xml version="1.0" encoding="UTF-8" standalone="no"?>
<!-- Created with Inkscape (http://www.inkscape.org/) -->

<svg
   width="35.922798mm"
   height="14.836883mm"
   viewBox="0 0 35.922798 14.836883"
   version="1.1"
   id="svg5"
   inkscape:version="1.1.2 (b8e25be833, 2022-02-05)"
   sodipodi:docname="onepageoneshot.svg.svg"
   xmlns:inkscape="http://www.inkscape.org/namespaces/inkscape"
   xmlns:sodipodi="http://sodipodi.sourceforge.net/DTD/sodipodi-0.dtd"
   xmlns="http://www.w3.org/2000/svg"
   xmlns:svg="http://www.w3.org/2000/svg">
  <defs
     id="defs2">
    <rect
       x="366.88751"
       y="293.51001"
       width="266.96921"
       height="92.112183"
       id="rect24752" />
    <filter
       style="color-interpolation-filters:sRGB"
       inkscape:label="Drop Shadow"
       id="filter119674"
       x="0"
       y="0"
       width="1.0837264"
       height="1.058898">
      <feFlood
         flood-opacity="0.74902"
         flood-color="rgb(0,0,0)"
         result="flood"
         id="feFlood119664" />
      <feComposite
         in="flood"
         in2="SourceGraphic"
         operator="in"
         result="composite1"
         id="feComposite119666" />
      <feGaussianBlur
         in="composite1"
         stdDeviation="2.77556e-17"
         result="blur"
         id="feGaussianBlur119668" />
      <feOffset
         dx="0.5"
         dy="0.5"
         result="offset"
         id="feOffset119670" />
      <feComposite
         in="SourceGraphic"
         in2="offset"
         operator="over"
         result="composite2"
         id="feComposite119672" />
    </filter>
  </defs>
  <g
     inkscape:label="Layer 1"
     inkscape:groupmode="layer"
     id="layer1"
     transform="translate(-103.16156,-60.10355)">
    <g
       aria-label="One Page 
One Shots"
       id="text34252"
       style="font-size:10.5833px;line-height:0.55;font-family:Bangers;-inkscape-font-specification:Bangers;letter-spacing:-0.132292px;stroke-width:0.264583">
      <path
         d="m 109.17713,62.462933 q 0,0.92569 -0.2032,1.74978 -0.19191,0.812801 -0.51929,1.501424 -0.32738,0.677334 -0.76764,1.219201 -0.42898,0.530578 -0.90312,0.914401 -0.47413,0.372534 -0.95955,0.575734 -0.48543,0.191911 -0.92569,0.191911 -0.37254,0 -0.67734,-0.135467 -0.3048,-0.146755 -0.53057,-0.417689 -0.22578,-0.282222 -0.36125,-0.711201 -0.12418,-0.440267 -0.12418,-1.049867 0,-0.632179 0.15805,-1.332091 0.15804,-0.699911 0.42898,-1.388534 0.27093,-0.688623 0.66604,-1.309513 0.39511,-0.620889 0.86925,-1.095023 0.47413,-0.485423 1.016,-0.767645 0.54186,-0.282223 1.12889,-0.282223 0.508,0 0.83538,0.214489 0.33866,0.2032 0.51928,0.541867 0.19192,0.327379 0.27094,0.745068 0.079,0.417689 0.079,0.835378 z m -4.28978,3.544715 q 0,0.124178 0.0452,0.259645 0.0452,0.135467 0.12418,0.237067 0.079,0.1016 0.19191,0.180622 0.12418,0.06773 0.25965,0.06773 0.508,0 0.90311,-0.349956 0.39511,-0.349956 0.65476,-0.857957 0.25964,-0.508 0.39511,-1.083734 0.14675,-0.575734 0.14675,-1.049868 0,-0.135467 -0.0226,-0.293511 -0.0113,-0.158045 -0.0677,-0.293512 -0.0452,-0.135467 -0.15804,-0.225778 -0.1016,-0.1016 -0.28222,-0.1016 -0.36125,0 -0.66605,0.180623 -0.3048,0.180622 -0.55316,0.485422 -0.23706,0.293512 -0.41769,0.677334 -0.18062,0.372534 -0.31608,0.767646 -0.12418,0.383822 -0.18063,0.756356 -0.0564,0.372534 -0.0564,0.643467 z"
         style="font-size:11.2889px;fill:#ffffeb;fill-opacity:1;filter:url(#filter119674)"
         id="path108917" />
      <path
         d="m 108.34493,68.626673 q 0.33866,-1.625602 0.64346,-3.149603 0.11289,-0.654756 0.23707,-1.354668 0.13547,-0.699912 0.24836,-1.377246 0.11289,-0.688623 0.2032,-1.309512 0.0903,-0.632179 0.13546,-1.140179 0.14676,0.01129 0.24836,0.01129 0.1016,0 0.23707,0 0.15804,0 0.38382,0 0.22578,-0.01129 0.45156,-0.02258 0.22577,-0.01129 0.48542,-0.02258 0.15804,0.790223 0.28222,1.524001 0.12418,0.643468 0.24836,1.320802 0.13546,0.677334 0.23706,1.151468 0.0452,-0.225778 0.1016,-0.51929 0.0564,-0.3048 0.12418,-0.632178 0.0677,-0.327378 0.12418,-0.654756 0.0677,-0.338667 0.13547,-0.666046 0.15804,-0.733778 0.32737,-1.512712 l 1.37725,-0.169334 q -0.38382,1.727202 -0.67733,3.273781 -0.13547,0.666046 -0.27094,1.354668 -0.12417,0.677334 -0.23706,1.309513 -0.11289,0.620889 -0.19192,1.162757 -0.079,0.530578 -0.12417,0.891823 -0.0339,0 -0.27094,0.05644 -0.22577,0.04516 -0.53058,0.112889 -0.29351,0.06773 -0.59831,0.135467 -0.29351,0.06773 -0.44026,0.124178 -0.0677,-0.903112 -0.14676,-1.715913 -0.0339,-0.349956 -0.079,-0.711201 -0.0339,-0.372533 -0.079,-0.7112 -0.0452,-0.338667 -0.0903,-0.632179 -0.0452,-0.293511 -0.0903,-0.508 -0.0339,0.214489 -0.0903,0.496711 -0.0564,0.282223 -0.11289,0.598312 -0.0564,0.316089 -0.11289,0.666045 -0.0564,0.338667 -0.12417,0.654756 -0.14676,0.756357 -0.31609,1.580446 z"
         style="font-size:11.2889px;fill:#ffffeb;fill-opacity:1;filter:url(#filter119674)"
         id="path108919" />
      <path
         d="m 113.34908,68.581517 1.47885,-8.026408 3.56729,-0.3048 q -0.079,0.248356 -0.13547,0.508001 -0.0564,0.214489 -0.11289,0.451556 -0.0452,0.225778 -0.079,0.4064 -0.11289,0.01129 -0.32738,0.02258 -0.2032,0 -0.44026,0.01129 -0.23707,0 -0.48543,0 -0.23706,0 -0.41768,0 l -0.39512,2.020713 q 0.34996,-0.02258 0.65476,-0.03387 0.24836,-0.01129 0.508,-0.01129 0.25965,0 0.38382,-0.01129 -0.0452,0.31609 -0.0903,0.62089 -0.0339,0.3048 -0.0903,0.620889 -0.11289,0.01129 -0.37253,0.02258 -0.24836,0 -0.508,0.01129 -0.29351,0.01129 -0.64347,0.02258 l -0.38382,2.077158 1.64818,-0.259645 -0.11289,1.286934 z"
         style="font-size:11.2889px;fill:#ffffeb;fill-opacity:1;filter:url(#filter119674)"
         id="path108921" />
      <path
         d="m 119.01116,68.581517 q 0.33867,-1.524001 0.64347,-2.980269 0.12418,-0.609601 0.25965,-1.286935 0.13546,-0.677334 0.25964,-1.33209 0.12418,-0.654756 0.23707,-1.264357 0.11289,-0.609601 0.19191,-1.117601 0.32738,-0.1016 0.64347,-0.169334 0.31609,-0.07902 0.64346,-0.135466 0.33867,-0.05645 0.63218,-0.05645 0.508,0 0.84667,0.169334 0.34996,0.169333 0.56444,0.462845 0.21449,0.282222 0.3048,0.666045 0.0903,0.383822 0.0903,0.824089 0,0.632179 -0.23707,1.219202 -0.22578,0.587022 -0.62089,1.049867 -0.38382,0.451556 -0.89182,0.72249 -0.49672,0.270934 -1.03858,0.270934 h -0.12418 q -0.0903,0.383822 -0.16933,0.835378 -0.079,0.451556 -0.13547,0.835379 -0.079,0.451556 -0.14676,0.903112 z m 3.14961,-6.97654 q -0.12418,0.745067 -0.24836,1.411113 -0.12418,0.666045 -0.27093,1.422401 0.18062,-0.04516 0.37253,-0.2032 0.2032,-0.169334 0.37254,-0.428978 0.16933,-0.270934 0.27093,-0.62089 0.1016,-0.349956 0.1016,-0.733778 0,-0.41769 -0.19191,-0.632179 -0.18062,-0.214489 -0.4064,-0.214489 z"
         style="font-size:11.2889px;fill:#ffffeb;fill-opacity:1;filter:url(#filter119674)"
         id="path108923" />
      <path
         d="m 127.34554,68.344451 q -0.28222,0.04515 -0.62089,0.1016 -0.33866,0.05644 -0.6096,0.1016 0.0452,-0.372534 0.0903,-0.733779 0.0339,-0.316089 0.0564,-0.632178 0.0339,-0.316089 0.0564,-0.541867 h -0.98213 l -0.45156,1.625601 q -0.24835,0.03387 -0.58702,0.07902 -0.33867,0.03387 -0.63218,0.06773 -0.36124,0.04516 -0.7112,0.09031 0.45156,-1.501424 0.89183,-2.957692 0.18062,-0.6096 0.37253,-1.275645 0.2032,-0.666046 0.39511,-1.320802 0.2032,-0.666045 0.38382,-1.275646 0.18063,-0.6096 0.31609,-1.117601 0.76765,-0.05644 1.55787,-0.135466 0.80151,-0.07902 1.55787,-0.21449 -0.0339,0.361245 -0.079,0.903112 -0.0339,0.530579 -0.0677,1.162757 -0.0339,0.632179 -0.0677,1.320802 -0.0339,0.688622 -0.0677,1.354668 -0.0565,1.557868 -0.12418,3.307647 -0.33867,0.05645 -0.67734,0.09031 z m -1.73849,-2.833514 q 0.0452,0 0.15805,0 0.12418,-0.01129 0.24835,-0.01129 0.13547,-0.01129 0.24836,-0.01129 0.11289,-0.01129 0.15804,-0.02258 0,-0.06773 0.0113,-0.225778 0.0226,-0.169334 0.0339,-0.372534 0.0226,-0.214489 0.0452,-0.462845 0.0226,-0.248355 0.0451,-0.485422 0.0452,-0.575734 0.11289,-1.241779 l 0.0677,-0.982135 -0.16933,0.01129 -0.25964,0.970846 z"
         style="font-size:11.2889px;fill:#ffffeb;fill-opacity:1;filter:url(#filter119674)"
         id="path108925" />
      <path
         d="m 134.0882,64.269158 q -0.079,1.151467 -0.45156,2.009424 -0.37253,0.846667 -0.90311,1.422401 -0.51929,0.575734 -1.12889,0.857957 -0.59831,0.282222 -1.14018,0.282222 -0.41769,0 -0.80151,-0.180622 -0.37253,-0.180623 -0.65476,-0.541867 -0.27093,-0.372534 -0.42897,-0.92569 -0.15805,-0.553156 -0.15805,-1.298224 0,-1.456268 0.41769,-2.540002 0.41769,-1.083735 1.04987,-1.806224 0.64346,-0.72249 1.36595,-1.072446 0.73378,-0.349956 1.36596,-0.349956 0.45156,0 0.77894,0.158045 0.33866,0.158044 0.55315,0.428978 0.21449,0.259645 0.3048,0.620889 0.1016,0.349956 0.1016,0.745068 l -1.54658,0.293511 q -0.1016,-0.451556 -0.27093,-0.643467 -0.16933,-0.191911 -0.38382,-0.191911 -0.28223,0 -0.62089,0.4064 -0.33867,0.395112 -0.63218,1.02729 -0.29351,0.632178 -0.49671,1.388535 -0.2032,0.756356 -0.22578,1.490135 0,0.699911 0.2032,1.004712 0.21449,0.293511 0.54187,0.293511 0.22577,0 0.46284,-0.112889 0.24836,-0.112889 0.44027,-0.316089 0.19191,-0.214489 0.31609,-0.485423 0.13546,-0.282222 0.14675,-0.6096 l -1.20791,0.180622 0.21449,-1.117601 q 0.53058,-0.06773 1.03858,-0.135467 0.42898,-0.05644 0.90311,-0.135467 0.48542,-0.07902 0.84667,-0.146755 z"
         style="font-size:11.2889px;fill:#ffffeb;fill-opacity:1;filter:url(#filter119674)"
         id="path108927" />
      <path
         d="m 133.53822,68.581517 1.47885,-8.026408 3.56729,-0.3048 q -0.079,0.248356 -0.13546,0.508001 -0.0565,0.214489 -0.11289,0.451556 -0.0452,0.225778 -0.079,0.4064 -0.11289,0.01129 -0.32737,0.02258 -0.2032,0 -0.44027,0.01129 -0.23707,0 -0.48542,0 -0.23707,0 -0.41769,0 l -0.39511,2.020713 q 0.34995,-0.02258 0.65475,-0.03387 0.24836,-0.01129 0.508,-0.01129 0.25965,0 0.38382,-0.01129 -0.0451,0.31609 -0.0903,0.62089 -0.0339,0.3048 -0.0903,0.620889 -0.11289,0.01129 -0.37253,0.02258 -0.24836,0 -0.508,0.01129 -0.29351,0.01129 -0.64347,0.02258 l -0.38382,2.077158 1.64818,-0.259645 -0.11289,1.286934 z"
         style="font-size:11.2889px;fill:#ffffeb;fill-opacity:1;filter:url(#filter119674)"
         id="path108929" />
      <path
         d="m 108.3869,69.047165 q 0,0.809978 -0.1778,1.531055 -0.16792,0.711201 -0.45437,1.313745 -0.28646,0.592667 -0.67169,1.0668 -0.37536,0.464256 -0.79023,0.800101 -0.41486,0.325966 -0.83961,0.503766 -0.42474,0.167923 -0.80998,0.167923 -0.32596,0 -0.59266,-0.118534 -0.2667,-0.128411 -0.46426,-0.365478 -0.19755,-0.246944 -0.31609,-0.6223 -0.10865,-0.385233 -0.10865,-0.918633 0,-0.553156 0.13829,-1.165578 0.13829,-0.612423 0.37535,-1.214967 0.23707,-0.602545 0.58279,-1.145823 0.34572,-0.543278 0.76059,-0.958144 0.41487,-0.424745 0.889,-0.671689 0.47413,-0.246945 0.98778,-0.246945 0.4445,0 0.73095,0.187678 0.29634,0.1778 0.45438,0.474133 0.16792,0.286456 0.23707,0.651934 0.0691,0.365478 0.0691,0.730956 z m -3.75355,3.101622 q 0,0.108656 0.0395,0.227189 0.0395,0.118534 0.10865,0.207434 0.0692,0.0889 0.16793,0.158044 0.10865,0.05927 0.22718,0.05927 0.44451,0 0.79023,-0.306211 0.34572,-0.306211 0.57291,-0.750712 0.22719,-0.4445 0.34572,-0.948266 0.12841,-0.503767 0.12841,-0.918634 0,-0.118533 -0.0198,-0.256822 -0.01,-0.138289 -0.0593,-0.256822 -0.0395,-0.118534 -0.13829,-0.197556 -0.0889,-0.0889 -0.24694,-0.0889 -0.31609,0 -0.58279,0.158044 -0.2667,0.158045 -0.48401,0.424745 -0.20744,0.256822 -0.36548,0.592667 -0.15805,0.325966 -0.27658,0.671689 -0.10866,0.335844 -0.15804,0.661811 -0.0494,0.325967 -0.0494,0.563033 z"
         style="font-size:9.87778px;fill:#ff5f5c;filter:url(#filter119674)"
         id="path108931" />
      <path
         d="m 107.64219,74.440432 q 0.29633,-1.4224 0.56303,-2.7559 0.0988,-0.572911 0.20744,-1.185334 0.11853,-0.612422 0.21731,-1.205089 0.0988,-0.602545 0.1778,-1.145822 0.079,-0.553156 0.11853,-0.997656 0.12841,0.0099 0.21731,0.0099 0.0889,0 0.20744,0 0.13828,0 0.33584,0 0.19756,-0.0099 0.39511,-0.01976 0.19756,-0.0099 0.42475,-0.01976 0.13828,0.691445 0.24694,1.333501 0.10866,0.563033 0.21731,1.1557 0.11853,0.592667 0.20743,1.007534 0.0395,-0.197556 0.0889,-0.454378 0.0494,-0.2667 0.10866,-0.553156 0.0593,-0.286456 0.10866,-0.572911 0.0593,-0.296334 0.11853,-0.582789 0.13829,-0.642056 0.28645,-1.323623 l 1.20509,-0.148166 q -0.33584,1.5113 -0.59266,2.864556 -0.11854,0.582789 -0.23707,1.185333 -0.10866,0.592667 -0.20743,1.145823 -0.0988,0.543278 -0.16793,1.017411 -0.0691,0.464256 -0.10865,0.780345 -0.0296,0 -0.23707,0.04939 -0.19755,0.03951 -0.46425,0.09878 -0.25683,0.05927 -0.52353,0.118534 -0.25682,0.05927 -0.38523,0.108655 -0.0593,-0.790222 -0.12841,-1.501422 -0.0296,-0.306211 -0.0691,-0.6223 -0.0296,-0.325967 -0.0691,-0.6223 -0.0395,-0.296334 -0.079,-0.553156 -0.0395,-0.256822 -0.079,-0.4445 -0.0296,0.187678 -0.079,0.434622 -0.0494,0.246945 -0.0988,0.523522 -0.0494,0.276578 -0.0988,0.582789 -0.0494,0.296334 -0.10866,0.572912 -0.12841,0.661811 -0.27657,1.382889 z"
         style="font-size:9.87778px;fill:#ff5f5c;filter:url(#filter119674)"
         id="path108933" />
      <path
         d="m 112.00428,74.400921 1.29399,-7.023101 3.12138,-0.2667 q -0.0691,0.217311 -0.11853,0.4445 -0.0494,0.187678 -0.0988,0.395111 -0.0395,0.197556 -0.0691,0.3556 -0.0988,0.0099 -0.28646,0.01976 -0.1778,0 -0.38523,0.0099 -0.20744,0 -0.42475,0 -0.20743,0 -0.36547,0 l -0.34573,1.768123 q 0.30621,-0.01976 0.57291,-0.02963 0.21732,-0.0099 0.4445,-0.0099 0.22719,0 0.33585,-0.0099 -0.0395,0.276578 -0.079,0.543278 -0.0296,0.2667 -0.079,0.543278 -0.0988,0.0099 -0.32596,0.01976 -0.21731,0 -0.4445,0.0099 -0.25682,0.0099 -0.56304,0.01976 l -0.33584,1.817511 1.44216,-0.227189 -0.0988,1.126067 z"
         style="font-size:9.87778px;fill:#ff5f5c;filter:url(#filter119674)"
         id="path108935" />
      <path
         d="m 121.33102,71.951232 q 0,0.553156 -0.21731,1.007533 -0.20744,0.444501 -0.57291,0.770467 -0.3556,0.325967 -0.84949,0.503767 -0.48401,0.1778 -1.04705,0.1778 -0.39511,0 -0.79022,-0.207433 -0.39511,-0.217311 -0.76059,-0.681567 l 0.73096,-1.432278 q 0.0691,0.128411 0.20743,0.2667 0.13829,0.128411 0.30621,0.227189 0.1778,0.09878 0.34572,0.167922 0.1778,0.05927 0.31609,0.05927 0.11854,0 0.24695,-0.03951 0.12841,-0.03951 0.23706,-0.118534 0.10866,-0.07902 0.16793,-0.1778 0.0691,-0.108655 0.0691,-0.246944 0,-0.237067 -0.15804,-0.434623 -0.14817,-0.207433 -0.37536,-0.385233 -0.22719,-0.187678 -0.49389,-0.375356 -0.2667,-0.187678 -0.49389,-0.395111 -0.21731,-0.207433 -0.37535,-0.464256 -0.15805,-0.256822 -0.15805,-0.572911 0,-0.513644 0.30621,-0.958144 0.30621,-0.444501 0.76059,-0.760589 0.46426,-0.325967 1.00754,-0.513645 0.54327,-0.187678 1.02729,-0.187678 0.2667,0 0.50376,0.06915 0.23707,0.05927 0.40499,0.207433 0.1778,0.138289 0.27658,0.3556 0.10865,0.217311 0.10865,0.543278 0,0.138289 -0.0296,0.276578 -0.0198,0.138289 -0.0395,0.296333 l -1.43228,0.414867 q 0.0198,-0.07902 0.0296,-0.158045 0.0197,-0.07902 0.0197,-0.158044 0,-0.296333 -0.10865,-0.424745 -0.0988,-0.138288 -0.26671,-0.138288 -0.079,0 -0.19755,0.05927 -0.10866,0.05927 -0.22719,0.158045 -0.10866,0.0889 -0.18768,0.217311 -0.079,0.128411 -0.079,0.276578 0,0.237066 0.12841,0.395111 0.13829,0.158044 0.33585,0.296333 0.19755,0.138289 0.42474,0.286456 0.23707,0.138289 0.43462,0.365478 0.19756,0.227189 0.32597,0.572911 0.13829,0.335845 0.13829,0.859367 z"
         style="font-size:9.87778px;fill:#ff5f5c;filter:url(#filter119674)"
         id="path108937" />
      <path
         d="m 121.14934,74.410799 q 0.27658,-1.382889 0.5334,-2.696634 0.0988,-0.563033 0.20743,-1.165578 0.10866,-0.612422 0.19756,-1.205089 0.0988,-0.592667 0.1778,-1.145823 0.0889,-0.563033 0.13829,-1.017411 0.22719,0.0099 0.41487,0.02963 0.19755,0.0099 0.38523,0.01976 0.18768,0.0099 0.37535,0.01976 0.19756,0 0.42475,0 -0.16792,0.701322 -0.33585,1.402644 -0.15804,0.701323 -0.29633,1.412523 l 0.9779,-0.108656 q 0.13829,-0.701322 0.24695,-1.353256 0.10865,-0.661811 0.28645,-1.363133 0.22719,-0.03951 0.50377,-0.05927 0.27658,-0.02963 0.51364,-0.04939 0.23707,-0.01976 0.39511,-0.02963 0.16793,-0.01976 0.16793,-0.01976 -0.13829,0.4445 -0.2667,0.977901 -0.11854,0.523522 -0.23707,1.096433 -0.11853,0.563034 -0.22719,1.145823 -0.10866,0.582789 -0.19756,1.106311 -0.21731,1.254478 -0.40498,2.568223 l -1.54094,0.1778 q 0.12841,-0.592667 0.22719,-1.1557 0.0988,-0.474134 0.19756,-0.987778 0.10865,-0.513645 0.16792,-0.879123 l -0.95815,0.0889 q -0.0691,0.375356 -0.16792,0.869245 -0.0889,0.493889 -0.16792,0.938389 -0.10866,0.5334 -0.21731,1.0668 z"
         style="font-size:9.87778px;fill:#ff5f5c;filter:url(#filter119674)"
         id="path108939" />
      <path
         d="m 130.82569,69.047165 q 0,0.809978 -0.1778,1.531055 -0.16793,0.711201 -0.45438,1.313745 -0.28646,0.592667 -0.67169,1.0668 -0.37536,0.464256 -0.79022,0.800101 -0.41487,0.325966 -0.83962,0.503766 -0.42474,0.167923 -0.80997,0.167923 -0.32597,0 -0.59267,-0.118534 -0.2667,-0.128411 -0.46426,-0.365478 -0.19755,-0.246944 -0.31608,-0.6223 -0.10866,-0.385233 -0.10866,-0.918633 0,-0.553156 0.13829,-1.165578 0.13829,-0.612423 0.37535,-1.214967 0.23707,-0.602545 0.58279,-1.145823 0.34573,-0.543278 0.76059,-0.958144 0.41487,-0.424745 0.889,-0.671689 0.47414,-0.246945 0.98778,-0.246945 0.4445,0 0.73096,0.187678 0.29633,0.1778 0.45437,0.474133 0.16793,0.286456 0.23707,0.651934 0.0692,0.365478 0.0692,0.730956 z m -3.75356,3.101622 q 0,0.108656 0.0395,0.227189 0.0395,0.118534 0.10866,0.207434 0.0691,0.0889 0.16792,0.158044 0.10865,0.05927 0.22719,0.05927 0.4445,0 0.79022,-0.306211 0.34572,-0.306211 0.57291,-0.750712 0.22719,-0.4445 0.34572,-0.948266 0.12841,-0.503767 0.12841,-0.918634 0,-0.118533 -0.0198,-0.256822 -0.01,-0.138289 -0.0593,-0.256822 -0.0395,-0.118534 -0.13829,-0.197556 -0.0889,-0.0889 -0.24694,-0.0889 -0.31609,0 -0.58279,0.158044 -0.2667,0.158045 -0.48401,0.424745 -0.20744,0.256822 -0.36548,0.592667 -0.15804,0.325966 -0.27658,0.671689 -0.10865,0.335844 -0.15804,0.661811 -0.0494,0.325967 -0.0494,0.563033 z"
         style="font-size:9.87778px;fill:#ff5f5c;filter:url(#filter119674)"
         id="path108941" />
      <path
         d="m 130.92058,74.400921 q 0.22719,-1.086556 0.43462,-2.143478 0.0889,-0.4445 0.1778,-0.928511 0.0889,-0.484012 0.16793,-0.948267 0.0889,-0.474134 0.14816,-0.908756 0.0692,-0.4445 0.11854,-0.809978 -0.22719,-0.02963 -0.46426,-0.01975 -0.22719,0.0099 -0.45438,-0.05927 0.01,-0.158045 0.01,-0.365478 0,-0.207433 0.01,-0.414867 0.01,-0.227189 0.0198,-0.484011 0.25683,0.01976 0.51365,0.02963 0.25682,0.0099 0.51364,0.0099 0.50377,0 0.96803,-0.01976 0.47413,-0.02963 0.86924,-0.05927 0.40499,-0.03951 0.79022,-0.0889 l -0.10865,0.5334 q -0.0494,0.227189 -0.0988,0.464256 -0.0395,0.237066 -0.079,0.404989 -0.21731,0.05927 -0.4445,0.0889 -0.21731,0.01976 -0.43463,0.05927 -0.0691,0.335845 -0.14816,0.750712 -0.079,0.404989 -0.15805,0.849489 -0.0691,0.434622 -0.13829,0.889 -0.0691,0.454378 -0.13828,0.869245 -0.15805,0.9779 -0.29634,2.024944 z"
         style="font-size:9.87778px;fill:#ff5f5c;filter:url(#filter119674)"
         id="path108943" />
      <path
         d="m 137.8509,71.951232 q 0,0.553156 -0.21731,1.007533 -0.20744,0.444501 -0.57291,0.770467 -0.3556,0.325967 -0.84949,0.503767 -0.48401,0.1778 -1.04705,0.1778 -0.39511,0 -0.79022,-0.207433 -0.39511,-0.217311 -0.76059,-0.681567 l 0.73096,-1.432278 q 0.0691,0.128411 0.20743,0.2667 0.13829,0.128411 0.30621,0.227189 0.1778,0.09878 0.34572,0.167922 0.1778,0.05927 0.31609,0.05927 0.11854,0 0.24695,-0.03951 0.12841,-0.03951 0.23706,-0.118534 0.10866,-0.07902 0.16793,-0.1778 0.0691,-0.108655 0.0691,-0.246944 0,-0.237067 -0.15804,-0.434623 -0.14817,-0.207433 -0.37536,-0.385233 -0.22719,-0.187678 -0.49389,-0.375356 -0.2667,-0.187678 -0.49389,-0.395111 -0.21731,-0.207433 -0.37535,-0.464256 -0.15805,-0.256822 -0.15805,-0.572911 0,-0.513644 0.30621,-0.958144 0.30621,-0.444501 0.76059,-0.760589 0.46426,-0.325967 1.00754,-0.513645 0.54327,-0.187678 1.02729,-0.187678 0.2667,0 0.50376,0.06915 0.23707,0.05927 0.40499,0.207433 0.1778,0.138289 0.27658,0.3556 0.10865,0.217311 0.10865,0.543278 0,0.138289 -0.0296,0.276578 -0.0198,0.138289 -0.0395,0.296333 l -1.43228,0.414867 q 0.0198,-0.07902 0.0296,-0.158045 0.0197,-0.07902 0.0197,-0.158044 0,-0.296333 -0.10865,-0.424745 -0.0988,-0.138288 -0.2667,-0.138288 -0.079,0 -0.19756,0.05927 -0.10866,0.05927 -0.22719,0.158045 -0.10865,0.0889 -0.18768,0.217311 -0.079,0.128411 -0.079,0.276578 0,0.237066 0.12841,0.395111 0.13829,0.158044 0.33585,0.296333 0.19755,0.138289 0.42474,0.286456 0.23707,0.138289 0.43462,0.365478 0.19756,0.227189 0.32597,0.572911 0.13829,0.335845 0.13829,0.859367 z"
         style="font-size:9.87778px;fill:#ff5f5c;filter:url(#filter119674)"
         id="path108945" />
    </g>
  </g>
</svg>
