<svg width="1024" height="169" viewBox="0 0 1024 169" fill="none" xmlns="http://www.w3.org/2000/svg">
<g clip-path="url(#clip0_17_46)">
<path fill-rule="evenodd" clip-rule="evenodd" d="M0 92L43 87C85 82 171 72 256 72C341 72 427 82 512 107C597 133 683 174 768 169C853 164 939 113 981 87L1024 61V0H981C939 0 853 0 768 0C683 0 597 0 512 0C427 0 341 0 256 0C171 0 85 0 43 0H0V92Z" fill="#FFFFEF"/>
</g>
<defs>
<clipPath id="clip0_17_46">
<rect width="1024" height="169" fill="transparent"/>
</clipPath>
</defs>
</svg>
